<mxfile host="Electron" agent="Mozilla/5.0 (Windows NT 10.0; Win64; x64) AppleWebKit/537.36 (KHTML, like Gecko) draw.io/26.1.1 Chrome/132.0.6834.210 Electron/34.3.3 Safari/537.36" version="26.1.1">
  <diagram id="C5RBs43oDa-KdzZeNtuy" name="Page-1">
    <mxGraphModel dx="1195" dy="697" grid="1" gridSize="10" guides="1" tooltips="1" connect="1" arrows="1" fold="1" page="1" pageScale="1" pageWidth="827" pageHeight="1169" math="0" shadow="0">
      <root>
        <mxCell id="WIyWlLk6GJQsqaUBKTNV-0" />
        <mxCell id="WIyWlLk6GJQsqaUBKTNV-1" parent="WIyWlLk6GJQsqaUBKTNV-0" />
        <mxCell id="4Qpqymnsbr3WJ3inhcf8-0" value="" style="rounded=0;whiteSpace=wrap;html=1;" vertex="1" parent="WIyWlLk6GJQsqaUBKTNV-1">
          <mxGeometry x="89" y="30" width="650" height="60" as="geometry" />
        </mxCell>
        <mxCell id="4Qpqymnsbr3WJ3inhcf8-5" value="&lt;font style=&quot;font-size: 19px;&quot;&gt;&lt;b&gt;Webkönyvtárak - THE_00751_L_&lt;/b&gt;&lt;/font&gt;&lt;b style=&quot;font-size: 19px; background-color: transparent; color: light-dark(rgb(0, 0, 0), rgb(255, 255, 255));&quot;&gt;3_G&lt;/b&gt;" style="text;html=1;align=center;verticalAlign=middle;whiteSpace=wrap;rounded=0;" vertex="1" parent="WIyWlLk6GJQsqaUBKTNV-1">
          <mxGeometry x="114" y="45" width="600" height="30" as="geometry" />
        </mxCell>
        <mxCell id="4Qpqymnsbr3WJ3inhcf8-26" value="" style="ellipse;whiteSpace=wrap;html=1;" vertex="1" parent="WIyWlLk6GJQsqaUBKTNV-1">
          <mxGeometry x="288.5" y="120" width="251" height="90" as="geometry" />
        </mxCell>
        <mxCell id="4Qpqymnsbr3WJ3inhcf8-27" value="JB3BMA_orarend" style="text;html=1;align=center;verticalAlign=middle;whiteSpace=wrap;rounded=0;fontSize=19;" vertex="1" parent="WIyWlLk6GJQsqaUBKTNV-1">
          <mxGeometry x="306" y="150" width="216" height="30" as="geometry" />
        </mxCell>
        <mxCell id="4Qpqymnsbr3WJ3inhcf8-28" value="" style="ellipse;whiteSpace=wrap;html=1;" vertex="1" parent="WIyWlLk6GJQsqaUBKTNV-1">
          <mxGeometry x="232" y="270" width="172" height="70" as="geometry" />
        </mxCell>
        <mxCell id="4Qpqymnsbr3WJ3inhcf8-29" value="ora" style="text;html=1;align=center;verticalAlign=middle;whiteSpace=wrap;rounded=0;fontSize=19;" vertex="1" parent="WIyWlLk6GJQsqaUBKTNV-1">
          <mxGeometry x="258" y="290" width="120" height="30" as="geometry" />
        </mxCell>
        <mxCell id="4Qpqymnsbr3WJ3inhcf8-30" value="" style="ellipse;whiteSpace=wrap;html=1;" vertex="1" parent="WIyWlLk6GJQsqaUBKTNV-1">
          <mxGeometry x="40" y="400" width="120" height="70" as="geometry" />
        </mxCell>
        <mxCell id="4Qpqymnsbr3WJ3inhcf8-31" value="kurzus" style="text;html=1;align=center;verticalAlign=middle;whiteSpace=wrap;rounded=0;fontSize=19;" vertex="1" parent="WIyWlLk6GJQsqaUBKTNV-1">
          <mxGeometry x="50" y="420" width="100" height="30" as="geometry" />
        </mxCell>
        <mxCell id="4Qpqymnsbr3WJ3inhcf8-35" value="" style="ellipse;whiteSpace=wrap;html=1;" vertex="1" parent="WIyWlLk6GJQsqaUBKTNV-1">
          <mxGeometry x="169.5" y="400" width="120" height="70" as="geometry" />
        </mxCell>
        <mxCell id="4Qpqymnsbr3WJ3inhcf8-36" value="idopont" style="text;html=1;align=center;verticalAlign=middle;whiteSpace=wrap;rounded=0;fontSize=19;" vertex="1" parent="WIyWlLk6GJQsqaUBKTNV-1">
          <mxGeometry x="179.5" y="420" width="100" height="30" as="geometry" />
        </mxCell>
        <mxCell id="4Qpqymnsbr3WJ3inhcf8-37" value="" style="ellipse;whiteSpace=wrap;html=1;" vertex="1" parent="WIyWlLk6GJQsqaUBKTNV-1">
          <mxGeometry x="300" y="400" width="120" height="70" as="geometry" />
        </mxCell>
        <mxCell id="4Qpqymnsbr3WJ3inhcf8-38" value="helyszin" style="text;html=1;align=center;verticalAlign=middle;whiteSpace=wrap;rounded=0;fontSize=19;" vertex="1" parent="WIyWlLk6GJQsqaUBKTNV-1">
          <mxGeometry x="310" y="420" width="100" height="30" as="geometry" />
        </mxCell>
        <mxCell id="4Qpqymnsbr3WJ3inhcf8-39" value="" style="ellipse;whiteSpace=wrap;html=1;" vertex="1" parent="WIyWlLk6GJQsqaUBKTNV-1">
          <mxGeometry x="429.5" y="400" width="120" height="70" as="geometry" />
        </mxCell>
        <mxCell id="4Qpqymnsbr3WJ3inhcf8-40" value="oktato" style="text;html=1;align=center;verticalAlign=middle;whiteSpace=wrap;rounded=0;fontSize=19;" vertex="1" parent="WIyWlLk6GJQsqaUBKTNV-1">
          <mxGeometry x="439.5" y="420" width="100" height="30" as="geometry" />
        </mxCell>
        <mxCell id="4Qpqymnsbr3WJ3inhcf8-41" value="" style="ellipse;whiteSpace=wrap;html=1;" vertex="1" parent="WIyWlLk6GJQsqaUBKTNV-1">
          <mxGeometry x="565" y="400" width="120" height="70" as="geometry" />
        </mxCell>
        <mxCell id="4Qpqymnsbr3WJ3inhcf8-42" value="szak" style="text;html=1;align=center;verticalAlign=middle;whiteSpace=wrap;rounded=0;fontSize=19;" vertex="1" parent="WIyWlLk6GJQsqaUBKTNV-1">
          <mxGeometry x="575" y="420" width="100" height="30" as="geometry" />
        </mxCell>
        <mxCell id="4Qpqymnsbr3WJ3inhcf8-43" value="" style="ellipse;whiteSpace=wrap;html=1;" vertex="1" parent="WIyWlLk6GJQsqaUBKTNV-1">
          <mxGeometry x="159.5" y="550" width="120" height="70" as="geometry" />
        </mxCell>
        <mxCell id="4Qpqymnsbr3WJ3inhcf8-44" value="nap" style="text;html=1;align=center;verticalAlign=middle;whiteSpace=wrap;rounded=0;fontSize=19;" vertex="1" parent="WIyWlLk6GJQsqaUBKTNV-1">
          <mxGeometry x="169.5" y="570" width="100" height="30" as="geometry" />
        </mxCell>
        <mxCell id="4Qpqymnsbr3WJ3inhcf8-45" value="" style="ellipse;whiteSpace=wrap;html=1;" vertex="1" parent="WIyWlLk6GJQsqaUBKTNV-1">
          <mxGeometry x="289.5" y="550" width="120" height="70" as="geometry" />
        </mxCell>
        <mxCell id="4Qpqymnsbr3WJ3inhcf8-46" value="tol" style="text;html=1;align=center;verticalAlign=middle;whiteSpace=wrap;rounded=0;fontSize=19;" vertex="1" parent="WIyWlLk6GJQsqaUBKTNV-1">
          <mxGeometry x="299.5" y="570" width="100" height="30" as="geometry" />
        </mxCell>
        <mxCell id="4Qpqymnsbr3WJ3inhcf8-47" value="" style="ellipse;whiteSpace=wrap;html=1;" vertex="1" parent="WIyWlLk6GJQsqaUBKTNV-1">
          <mxGeometry x="419.5" y="550" width="120" height="70" as="geometry" />
        </mxCell>
        <mxCell id="4Qpqymnsbr3WJ3inhcf8-48" value="ig" style="text;html=1;align=center;verticalAlign=middle;whiteSpace=wrap;rounded=0;fontSize=19;" vertex="1" parent="WIyWlLk6GJQsqaUBKTNV-1">
          <mxGeometry x="429.5" y="570" width="100" height="30" as="geometry" />
        </mxCell>
        <mxCell id="4Qpqymnsbr3WJ3inhcf8-50" value="" style="endArrow=none;html=1;rounded=0;entryX=0.5;entryY=0;entryDx=0;entryDy=0;exitX=0.5;exitY=0;exitDx=0;exitDy=0;" edge="1" parent="WIyWlLk6GJQsqaUBKTNV-1" source="4Qpqymnsbr3WJ3inhcf8-43" target="4Qpqymnsbr3WJ3inhcf8-45">
          <mxGeometry width="50" height="50" relative="1" as="geometry">
            <mxPoint x="240" y="520" as="sourcePoint" />
            <mxPoint x="280" y="500" as="targetPoint" />
            <Array as="points">
              <mxPoint x="220" y="520" />
              <mxPoint x="280" y="520" />
              <mxPoint x="350" y="520" />
            </Array>
          </mxGeometry>
        </mxCell>
        <mxCell id="4Qpqymnsbr3WJ3inhcf8-51" value="" style="endArrow=none;html=1;rounded=0;entryX=0.5;entryY=0;entryDx=0;entryDy=0;" edge="1" parent="WIyWlLk6GJQsqaUBKTNV-1" target="4Qpqymnsbr3WJ3inhcf8-47">
          <mxGeometry width="50" height="50" relative="1" as="geometry">
            <mxPoint x="350" y="520" as="sourcePoint" />
            <mxPoint x="600" y="530" as="targetPoint" />
            <Array as="points">
              <mxPoint x="480" y="520" />
            </Array>
          </mxGeometry>
        </mxCell>
        <mxCell id="4Qpqymnsbr3WJ3inhcf8-52" value="" style="endArrow=none;html=1;rounded=0;entryX=0.5;entryY=1;entryDx=0;entryDy=0;" edge="1" parent="WIyWlLk6GJQsqaUBKTNV-1" target="4Qpqymnsbr3WJ3inhcf8-35">
          <mxGeometry width="50" height="50" relative="1" as="geometry">
            <mxPoint x="350" y="520" as="sourcePoint" />
            <mxPoint x="500" y="310" as="targetPoint" />
            <Array as="points">
              <mxPoint x="350" y="490" />
              <mxPoint x="230" y="490" />
            </Array>
          </mxGeometry>
        </mxCell>
        <mxCell id="4Qpqymnsbr3WJ3inhcf8-53" value="" style="endArrow=none;html=1;rounded=0;exitX=0.5;exitY=0;exitDx=0;exitDy=0;entryX=0.5;entryY=0;entryDx=0;entryDy=0;" edge="1" parent="WIyWlLk6GJQsqaUBKTNV-1" source="4Qpqymnsbr3WJ3inhcf8-30" target="4Qpqymnsbr3WJ3inhcf8-35">
          <mxGeometry width="50" height="50" relative="1" as="geometry">
            <mxPoint x="450" y="360" as="sourcePoint" />
            <mxPoint x="500" y="310" as="targetPoint" />
            <Array as="points">
              <mxPoint x="100" y="380" />
              <mxPoint x="230" y="380" />
            </Array>
          </mxGeometry>
        </mxCell>
        <mxCell id="4Qpqymnsbr3WJ3inhcf8-54" value="" style="endArrow=none;html=1;rounded=0;entryX=0.5;entryY=0;entryDx=0;entryDy=0;" edge="1" parent="WIyWlLk6GJQsqaUBKTNV-1" target="4Qpqymnsbr3WJ3inhcf8-37">
          <mxGeometry width="50" height="50" relative="1" as="geometry">
            <mxPoint x="230" y="380" as="sourcePoint" />
            <mxPoint x="390" y="350" as="targetPoint" />
            <Array as="points">
              <mxPoint x="360" y="380" />
            </Array>
          </mxGeometry>
        </mxCell>
        <mxCell id="4Qpqymnsbr3WJ3inhcf8-55" value="" style="endArrow=none;html=1;rounded=0;entryX=0.5;entryY=0;entryDx=0;entryDy=0;" edge="1" parent="WIyWlLk6GJQsqaUBKTNV-1" target="4Qpqymnsbr3WJ3inhcf8-39">
          <mxGeometry width="50" height="50" relative="1" as="geometry">
            <mxPoint x="360" y="380" as="sourcePoint" />
            <mxPoint x="500" y="340" as="targetPoint" />
            <Array as="points">
              <mxPoint x="490" y="380" />
            </Array>
          </mxGeometry>
        </mxCell>
        <mxCell id="4Qpqymnsbr3WJ3inhcf8-56" value="" style="endArrow=none;html=1;rounded=0;entryX=0.5;entryY=0;entryDx=0;entryDy=0;" edge="1" parent="WIyWlLk6GJQsqaUBKTNV-1" target="4Qpqymnsbr3WJ3inhcf8-41">
          <mxGeometry width="50" height="50" relative="1" as="geometry">
            <mxPoint x="490" y="380" as="sourcePoint" />
            <mxPoint x="630" y="330" as="targetPoint" />
            <Array as="points">
              <mxPoint x="625" y="380" />
            </Array>
          </mxGeometry>
        </mxCell>
        <mxCell id="4Qpqymnsbr3WJ3inhcf8-57" value="" style="endArrow=none;html=1;rounded=0;entryX=0.488;entryY=1.012;entryDx=0;entryDy=0;entryPerimeter=0;" edge="1" parent="WIyWlLk6GJQsqaUBKTNV-1" target="4Qpqymnsbr3WJ3inhcf8-28">
          <mxGeometry width="50" height="50" relative="1" as="geometry">
            <mxPoint x="360" y="380" as="sourcePoint" />
            <mxPoint x="440" y="320" as="targetPoint" />
            <Array as="points">
              <mxPoint x="360" y="360" />
              <mxPoint x="316" y="360" />
            </Array>
          </mxGeometry>
        </mxCell>
        <mxCell id="4Qpqymnsbr3WJ3inhcf8-58" value="" style="endArrow=none;html=1;rounded=0;exitX=0.512;exitY=0;exitDx=0;exitDy=0;entryX=0.5;entryY=1;entryDx=0;entryDy=0;exitPerimeter=0;" edge="1" parent="WIyWlLk6GJQsqaUBKTNV-1" source="4Qpqymnsbr3WJ3inhcf8-28" target="4Qpqymnsbr3WJ3inhcf8-26">
          <mxGeometry width="50" height="50" relative="1" as="geometry">
            <mxPoint x="430" y="270" as="sourcePoint" />
            <mxPoint x="480" y="220" as="targetPoint" />
            <Array as="points">
              <mxPoint x="320" y="240" />
              <mxPoint x="414" y="240" />
            </Array>
          </mxGeometry>
        </mxCell>
        <mxCell id="4Qpqymnsbr3WJ3inhcf8-59" value="" style="rhombus;whiteSpace=wrap;html=1;" vertex="1" parent="WIyWlLk6GJQsqaUBKTNV-1">
          <mxGeometry x="565" y="220" width="80" height="80" as="geometry" />
        </mxCell>
        <mxCell id="4Qpqymnsbr3WJ3inhcf8-60" value="" style="rhombus;whiteSpace=wrap;html=1;direction=south;" vertex="1" parent="WIyWlLk6GJQsqaUBKTNV-1">
          <mxGeometry x="650" y="290" width="80" height="80" as="geometry" />
        </mxCell>
        <mxCell id="4Qpqymnsbr3WJ3inhcf8-61" value="id" style="text;html=1;align=center;verticalAlign=middle;whiteSpace=wrap;rounded=0;fontSize=19;" vertex="1" parent="WIyWlLk6GJQsqaUBKTNV-1">
          <mxGeometry x="569.75" y="245" width="70.5" height="30" as="geometry" />
        </mxCell>
        <mxCell id="4Qpqymnsbr3WJ3inhcf8-62" value="tipus" style="text;html=1;align=center;verticalAlign=middle;whiteSpace=wrap;rounded=0;fontSize=19;" vertex="1" parent="WIyWlLk6GJQsqaUBKTNV-1">
          <mxGeometry x="654.75" y="315" width="70.5" height="30" as="geometry" />
        </mxCell>
        <mxCell id="4Qpqymnsbr3WJ3inhcf8-63" value="" style="endArrow=none;html=1;rounded=0;exitX=1;exitY=0.5;exitDx=0;exitDy=0;entryX=0;entryY=0.5;entryDx=0;entryDy=0;" edge="1" parent="WIyWlLk6GJQsqaUBKTNV-1" source="4Qpqymnsbr3WJ3inhcf8-28" target="4Qpqymnsbr3WJ3inhcf8-59">
          <mxGeometry width="50" height="50" relative="1" as="geometry">
            <mxPoint x="430" y="310" as="sourcePoint" />
            <mxPoint x="480" y="260" as="targetPoint" />
            <Array as="points">
              <mxPoint x="520" y="305" />
              <mxPoint x="520" y="260" />
            </Array>
          </mxGeometry>
        </mxCell>
        <mxCell id="4Qpqymnsbr3WJ3inhcf8-64" value="" style="endArrow=none;html=1;rounded=0;entryX=0.5;entryY=1;entryDx=0;entryDy=0;exitX=1;exitY=0.5;exitDx=0;exitDy=0;" edge="1" parent="WIyWlLk6GJQsqaUBKTNV-1" source="4Qpqymnsbr3WJ3inhcf8-28" target="4Qpqymnsbr3WJ3inhcf8-60">
          <mxGeometry width="50" height="50" relative="1" as="geometry">
            <mxPoint x="520" y="310" as="sourcePoint" />
            <mxPoint x="620" y="330" as="targetPoint" />
            <Array as="points">
              <mxPoint x="520" y="305" />
              <mxPoint x="520" y="330" />
            </Array>
          </mxGeometry>
        </mxCell>
      </root>
    </mxGraphModel>
  </diagram>
</mxfile>
